<svg version="1.1" id="Layer_1"
	xmlns="http://www.w3.org/2000/svg"
	xmlns:xlink="http://www.w3.org/1999/xlink" x="0px" y="0px" viewBox="0 0 512 512" enable-background="new 0 0 512 512" xml:space="preserve">
	<g>
		<title>Layer 1</title>
		<path id="svg_1" class="svg_star" d="M289.4,97.37c12.5-12.49,32.7-12.49,45.2,0l28.7,28.73l17.4-17.4c6.199-6.3,16.399-6.3,22.6,0
		c6.3,6.2,6.3,16.4,0,22.6l-17.4,17.4l28.7,28.7c12.5,12.5,12.5,32.7,0,45.2l-10.8,10.9c7.899,22,12.2,45.8,12.2,70.5
		c0,114.9-93.101,208-208,208C93.12,512,0,418.9,0,304C0,189.1,93.12,96,208,96c24.7,0,48.5,4.3,70.5,12.3L289.4,97.37L289.4,97.37z
		"/>
	</g>
	<path class="svg_bomb" d="M440.8,4.994C441.9,1.99,444.8,0,448,0c3.199,0,6.1,1.99,7.199,4.994L469.3,42.67L507,56.79c3,1.13,5,4,5,7.21
	s-2,6.08-5,7.21l-37.7,14.12L455.199,123c-1.1,3-4,5-7.2,5c-3.199,0-6.1-2-7.199-5l-14.101-37.67l-38.6-14.12
	c-3-1.13-4.1-4-4.1-7.21s1.1-6.08,4.1-7.21l38.6-14.12L440.8,4.994L440.8,4.994z"/>
</svg>
